<?xml version="1.0" encoding="UTF-8" standalone="no"?>
<svg
   version="1.1"
   id="mdi-rotate-left"
   width="24"
   height="24"
   viewBox="0 0 24 24"
   sodipodi:docname="arrow-rotate.svg"
   inkscape:version="1.1.1 (3bf5ae0d25, 2021-09-20)"
   xmlns:inkscape="http://www.inkscape.org/namespaces/inkscape"
   xmlns:sodipodi="http://sodipodi.sourceforge.net/DTD/sodipodi-0.dtd"
   xmlns="http://www.w3.org/2000/svg"
   xmlns:svg="http://www.w3.org/2000/svg">
  <defs
     id="defs7" />
  <sodipodi:namedview
     id="namedview5"
     pagecolor="#ffffff"
     bordercolor="#666666"
     borderopacity="1.0"
     inkscape:pageshadow="2"
     inkscape:pageopacity="0.0"
     inkscape:pagecheckerboard="0"
     showgrid="false"
     inkscape:zoom="12.271249"
     inkscape:cx="7.9046557"
     inkscape:cy="12.468168"
     inkscape:window-width="1920"
     inkscape:window-height="1019"
     inkscape:window-x="0"
     inkscape:window-y="0"
     inkscape:window-maximized="1"
     inkscape:current-layer="mdi-rotate-left"
     inkscape:snap-bbox="true"
     inkscape:bbox-paths="true"
     inkscape:snap-bbox-edge-midpoints="true"
     inkscape:snap-bbox-midpoints="true"
     inkscape:bbox-nodes="true"
     inkscape:snap-midpoints="true"
     inkscape:snap-object-midpoints="true"
     inkscape:snap-center="true"
     inkscape:snap-page="true"
     showguides="true"
     inkscape:guide-bbox="true"
     inkscape:snap-global="true">
    <sodipodi:guide
       position="24,12"
       orientation="0,-1"
       id="guide1120" />
    <sodipodi:guide
       position="12,0"
       orientation="1,0"
       id="guide1122" />
  </sodipodi:namedview>
  <path
     style="fill:#ffffff;fill-opacity:0.25"
     d="m 8.5323405,16.863191 -1.435127,1.3946 c 1.1502247,0.912461 2.4841064,1.486883 3.8721915,1.671866 l 0.02179,-2.019883 C 10.122755,17.760398 9.2765799,17.40125 8.5323405,16.863191 Z"
     id="path1368"
     inkscape:transform-center-x="2.9557958"
     inkscape:transform-center-y="6.396424" />
  <path
     style="fill:#ffffff;fill-opacity:0.25"
     d="m 12.991078,17.931348 -0.02179,2.019882 c 1.391752,-0.154997 2.737608,-0.69051 3.907248,-1.577945 L 15.471829,16.94805 c -0.755566,0.511879 -1.599293,0.852798 -2.480751,0.983298"
     id="path1056-6"
     inkscape:transform-center-x="-2.922912"
     inkscape:transform-center-y="6.44964" />
  <path
     id="path2"
     style="fill:#ffffff"
     d="m 12,4.0349998 c -3.9524997,0 -7.2305299,2.8627762 -7.8769529,6.6328122 -0.020852,0.121614 -0.037422,0.24375 -0.052734,0.367188 H 1.0000002 L 5.5488283,15.585781 9.9999998,11.035 H 6.089844 c 0.015,-0.08875 0.031959,-0.176296 0.050781,-0.263672 C 6.724117,8.0626499 9.1228125,6.0349998 12,6.0349998 c 2.97,0 5.430157,2.16 5.910157,5.0000002 H 14 L 18.449219,15.585781 23,11.035 H 19.929688 C 19.439688,7.0849998 16.08,4.0349998 12,4.0349998 Z" />
</svg>
