<?xml version="1.0" encoding="UTF-8" standalone="no"?>
<svg
   width="24"
   height="24"
   version="1.1"
   id="svg4"
   sodipodi:docname="car-speed-limiter.svg"
   inkscape:version="1.1.1 (3bf5ae0d25, 2021-09-20)"
   xmlns:inkscape="http://www.inkscape.org/namespaces/inkscape"
   xmlns:sodipodi="http://sodipodi.sourceforge.net/DTD/sodipodi-0.dtd"
   xmlns="http://www.w3.org/2000/svg"
   xmlns:svg="http://www.w3.org/2000/svg">
  <defs
     id="defs8" />
  <sodipodi:namedview
     id="namedview6"
     pagecolor="#ffffff"
     bordercolor="#666666"
     borderopacity="1.0"
     inkscape:pageshadow="2"
     inkscape:pageopacity="0.0"
     inkscape:pagecheckerboard="0"
     showgrid="false"
     inkscape:zoom="34.708333"
     inkscape:cx="12"
     inkscape:cy="11.985594"
     inkscape:window-width="1920"
     inkscape:window-height="1019"
     inkscape:window-x="0"
     inkscape:window-y="0"
     inkscape:window-maximized="1"
     inkscape:current-layer="svg4" />
  <path
     d="M18 15c0 2.6-1.2 4.9-3.1 6.3l-.5-.5-2.1-2.1 1.4-1.4 1.2 1.2c.5-.7.9-1.6 1-2.5H14v-2h1.9c-.2-.9-.5-1.7-1-2.5l-1.2 1.2-1.4-1.4 1.2-1.2c-.7-.5-1.6-.9-2.5-1V11H9V9.1c-.9.2-1.7.5-2.5 1l3 3c.2 0 .3-.1.5-.1a2 2 0 1 1 0 4c-1.11 0-2-.89-2-2 0-.2 0-.3.1-.5l-3-3c-.5.7-.9 1.6-1 2.5H6v2H4.1c.2.9.5 1.7 1 2.5l1.2-1.2 1.4 1.4-2.6 2.6C3.2 19.9 2 17.6 2 15c0-4.42 3.58-8 8-8s8 3.58 8 8m5-10c0-1.66-1.34-3-3-3s-3 1.34-3 3c0 1.3.84 2.4 2 2.82V11h2V7.82C22.16 7.4 23 6.3 23 5m-3 1c-.55 0-1-.45-1-1s.45-1 1-1 1 .45 1 1-.45 1-1 1Z"
     id="path2"
     style="fill:#ffffff" />
</svg>
