<?xml version="1.0" encoding="UTF-8" standalone="no"?>
<svg
   version="1.1"
   id="mdi-weather-sunny"
   width="24"
   height="24"
   viewBox="0 0 24 24"
   sodipodi:docname="color-light.svg"
   inkscape:version="1.1.1 (3bf5ae0d25, 2021-09-20)"
   xmlns:inkscape="http://www.inkscape.org/namespaces/inkscape"
   xmlns:sodipodi="http://sodipodi.sourceforge.net/DTD/sodipodi-0.dtd"
   xmlns="http://www.w3.org/2000/svg"
   xmlns:svg="http://www.w3.org/2000/svg">
  <defs
     id="defs7" />
  <sodipodi:namedview
     id="namedview5"
     pagecolor="#ffffff"
     bordercolor="#666666"
     borderopacity="1.0"
     inkscape:pageshadow="2"
     inkscape:pageopacity="0.0"
     inkscape:pagecheckerboard="0"
     showgrid="false"
     inkscape:zoom="34.708333"
     inkscape:cx="11.985594"
     inkscape:cy="11.985594"
     inkscape:window-width="1920"
     inkscape:window-height="1019"
     inkscape:window-x="0"
     inkscape:window-y="0"
     inkscape:window-maximized="1"
     inkscape:current-layer="mdi-weather-sunny" />
  <path
     d="m 12,7 c 2.761424,0 5,2.2385763 5,5 0,2.761424 -2.238576,5 -5,5 C 9.2385763,17 7,14.761424 7,12 7,9.2385763 9.2385763,7 12,7 m 0,-5 2.39,3.42 C 13.65,5.15 12.84,5 12,5 11.16,5 10.35,5.15 9.61,5.42 L 12,2 M 3.34,7 7.5,6.65 C 6.9,7.16 6.36,7.78 5.94,8.5 5.5,9.24 5.25,10 5.11,10.79 L 3.34,7 m 0.02,10 1.76,-3.77 c 0.14,0.77 0.41,1.55 0.83,2.27 0.42,0.74 0.96,1.36 1.55,1.87 L 3.36,17 M 20.65,7 18.88,10.79 C 18.74,10 18.47,9.23 18.05,8.5 17.63,7.78 17.1,7.15 16.5,6.64 L 20.65,7 m -0.01,10 -4.14,0.36 c 0.59,-0.51 1.12,-1.14 1.54,-1.86 0.42,-0.73 0.69,-1.5 0.83,-2.29 L 20.64,17 M 12,22 9.59,18.56 C 10.33,18.83 11.14,19 12,19 c 0.82,0 1.63,-0.17 2.37,-0.44 z"
     id="path2"
     sodipodi:nodetypes="cssscccsccccccccccccccccccccccccscc"
     style="fill:#ffffff" />
</svg>
