<?xml version="1.0" encoding="UTF-8" standalone="no"?>
<svg
   version="1.1"
   id="mdi-flag-checkered"
   width="24"
   height="24"
   viewBox="0 0 24 24"
   sodipodi:docname="flag-checkered.svg"
   inkscape:version="1.1.1 (3bf5ae0d25, 2021-09-20)"
   xmlns:inkscape="http://www.inkscape.org/namespaces/inkscape"
   xmlns:sodipodi="http://sodipodi.sourceforge.net/DTD/sodipodi-0.dtd"
   xmlns="http://www.w3.org/2000/svg"
   xmlns:svg="http://www.w3.org/2000/svg">
  <defs
     id="defs7" />
  <sodipodi:namedview
     id="namedview5"
     pagecolor="#ffffff"
     bordercolor="#666666"
     borderopacity="1.0"
     inkscape:pageshadow="2"
     inkscape:pageopacity="0.0"
     inkscape:pagecheckerboard="0"
     showgrid="false"
     inkscape:zoom="34.708333"
     inkscape:cx="11.985594"
     inkscape:cy="11.985594"
     inkscape:window-width="1920"
     inkscape:window-height="1019"
     inkscape:window-x="0"
     inkscape:window-y="0"
     inkscape:window-maximized="1"
     inkscape:current-layer="mdi-flag-checkered" />
  <path
     d="M14.4,6H20V16H13L12.6,14H7V21H5V4H14L14.4,6M14,14H16V12H18V10H16V8H14V10L13,8V6H11V8H9V6H7V8H9V10H7V12H9V10H11V12H13V10L14,12V14M11,10V8H13V10H11M14,10H16V12H14V10Z"
     id="path2"
     style="fill:#ffffff" />
</svg>
