<?xml version="1.0" encoding="UTF-8" standalone="no"?>
<svg
   version="1.1"
   id="mdi-format-color-fill"
   width="24"
   height="24"
   viewBox="0 0 24 24"
   sodipodi:docname="format-color-fill.svg"
   inkscape:version="1.1.1 (3bf5ae0d25, 2021-09-20)"
   xmlns:inkscape="http://www.inkscape.org/namespaces/inkscape"
   xmlns:sodipodi="http://sodipodi.sourceforge.net/DTD/sodipodi-0.dtd"
   xmlns="http://www.w3.org/2000/svg"
   xmlns:svg="http://www.w3.org/2000/svg">
  <defs
     id="defs7" />
  <sodipodi:namedview
     id="namedview5"
     pagecolor="#ffffff"
     bordercolor="#666666"
     borderopacity="1.0"
     inkscape:pageshadow="2"
     inkscape:pageopacity="0.0"
     inkscape:pagecheckerboard="0"
     showgrid="false"
     inkscape:zoom="34.708333"
     inkscape:cx="12"
     inkscape:cy="11.985594"
     inkscape:window-width="1920"
     inkscape:window-height="1019"
     inkscape:window-x="0"
     inkscape:window-y="0"
     inkscape:window-maximized="1"
     inkscape:current-layer="mdi-format-color-fill" />
  <path
     d="M19,11.5C19,11.5 17,13.67 17,15A2,2 0 0,0 19,17A2,2 0 0,0 21,15C21,13.67 19,11.5 19,11.5M5.21,10L10,5.21L14.79,10M16.56,8.94L7.62,0L6.21,1.41L8.59,3.79L3.44,8.94C2.85,9.5 2.85,10.47 3.44,11.06L8.94,16.56C9.23,16.85 9.62,17 10,17C10.38,17 10.77,16.85 11.06,16.56L16.56,11.06C17.15,10.47 17.15,9.5 16.56,8.94Z"
     id="path2"
     style="fill:#ffffff" />
</svg>
