<?xml version="1.0" encoding="UTF-8" standalone="no"?>
<svg
   version="1.1"
   id="mdi-lightbulb-on"
   width="24"
   height="24"
   viewBox="0 0 24 24"
   sodipodi:docname="lightbulb-off.svg"
   inkscape:version="1.1.1 (3bf5ae0d25, 2021-09-20)"
   xmlns:inkscape="http://www.inkscape.org/namespaces/inkscape"
   xmlns:sodipodi="http://sodipodi.sourceforge.net/DTD/sodipodi-0.dtd"
   xmlns="http://www.w3.org/2000/svg"
   xmlns:svg="http://www.w3.org/2000/svg">
  <defs
     id="defs7" />
  <sodipodi:namedview
     id="namedview5"
     pagecolor="#ffffff"
     bordercolor="#666666"
     borderopacity="1.0"
     inkscape:pageshadow="2"
     inkscape:pageopacity="0.0"
     inkscape:pagecheckerboard="0"
     showgrid="false"
     inkscape:snap-bbox="true"
     inkscape:bbox-paths="true"
     inkscape:bbox-nodes="true"
     inkscape:snap-bbox-edge-midpoints="true"
     inkscape:snap-bbox-midpoints="true"
     inkscape:object-paths="true"
     inkscape:snap-intersection-paths="true"
     inkscape:snap-smooth-nodes="true"
     inkscape:snap-midpoints="true"
     inkscape:snap-object-midpoints="true"
     inkscape:snap-center="true"
     inkscape:snap-text-baseline="true"
     inkscape:snap-page="true"
     inkscape:zoom="17.354167"
     inkscape:cx="13.022809"
     inkscape:cy="11.927971"
     inkscape:window-width="1920"
     inkscape:window-height="1019"
     inkscape:window-x="0"
     inkscape:window-y="0"
     inkscape:window-maximized="1"
     inkscape:current-layer="mdi-lightbulb-on" />
  <path
     style="fill:#ffffff"
     d="m 14,21 v 1 a 1,1 0 0 1 -1,1 h -2 a 1,1 0 0 1 -1,-1 v -1 h 4"
     id="path1078" />
  <path
     id="path2"
     style="fill:#ffffff"
     d="M 12 6 A 6 6 0 0 0 6 12 C 6 14.22 7.21 16.159219 9 17.199219 L 9 19 A 1 1 0 0 0 10 20 L 14 20 A 1 1 0 0 0 15 19 L 15 17.199219 C 16.79 16.159219 18 14.22 18 12 A 6 6 0 0 0 12 6 z M 12 7.6992188 A 4.2500002 4.2500002 0 0 1 16.25 11.949219 C 16.25 13.691719 15.203719 15.18925 13.699219 15.84375 L 13.699219 17.900391 L 10.300781 17.900391 L 10.300781 15.84375 C 8.7962811 15.18925 7.75 13.691719 7.75 11.949219 A 4.2500002 4.2500002 0 0 1 12 7.6992188 z " />
</svg>
