<?xml version="1.0" encoding="UTF-8" standalone="no"?>
<svg
   version="1.1"
   id="mdi-magnet"
   width="24"
   height="24"
   viewBox="0 0 24 24"
   sodipodi:docname="magnet-relax.svg"
   inkscape:version="1.1.1 (3bf5ae0d25, 2021-09-20)"
   xmlns:inkscape="http://www.inkscape.org/namespaces/inkscape"
   xmlns:sodipodi="http://sodipodi.sourceforge.net/DTD/sodipodi-0.dtd"
   xmlns="http://www.w3.org/2000/svg"
   xmlns:svg="http://www.w3.org/2000/svg">
  <defs
     id="defs7" />
  <sodipodi:namedview
     id="namedview5"
     pagecolor="#ffffff"
     bordercolor="#666666"
     borderopacity="1.0"
     inkscape:pageshadow="2"
     inkscape:pageopacity="0.0"
     inkscape:pagecheckerboard="0"
     showgrid="false"
     inkscape:snap-bbox="true"
     inkscape:bbox-paths="true"
     inkscape:snap-page="true"
     inkscape:snap-intersection-paths="true"
     inkscape:snap-bbox-midpoints="true"
     inkscape:snap-bbox-edge-midpoints="true"
     inkscape:bbox-nodes="true"
     inkscape:zoom="8.6770833"
     inkscape:cx="4.1488595"
     inkscape:cy="16.364946"
     inkscape:window-width="1920"
     inkscape:window-height="1019"
     inkscape:window-x="0"
     inkscape:window-y="0"
     inkscape:window-maximized="1"
     inkscape:current-layer="mdi-magnet" />
  <path
     d="M3,7V13A9,9 0 0,0 12,22A9,9 0 0,0 21,13V7H17V13A5,5 0 0,1 12,18A5,5 0 0,1 7,13V7M17,5H21V2H17M3,5H7V2H3"
     fill="white"
     id="path2"
     style="fill:#ffffff" />
  <path
     d="M 15.54,6.34 13.41,8.46 15.54,10.58 14.12,12 12,9.87 9.88,12 8.46,10.58 10.59,8.46 8.46,6.34 9.88,4.92 12,7.05 14.12,4.92 Z"
     id="path1150"
     sodipodi:nodetypes="ccccccccccccc"
     style="fill:#ffffff" />
</svg>
