<?xml version="1.0" encoding="UTF-8" standalone="no"?>
<svg
   width="24"
   height="24"
   version="1.1"
   id="svg6"
   sodipodi:docname="rot-roll.svg"
   inkscape:version="1.1.1 (3bf5ae0d25, 2021-09-20)"
   xmlns:inkscape="http://www.inkscape.org/namespaces/inkscape"
   xmlns:sodipodi="http://sodipodi.sourceforge.net/DTD/sodipodi-0.dtd"
   xmlns="http://www.w3.org/2000/svg"
   xmlns:svg="http://www.w3.org/2000/svg">
  <defs
     id="defs10" />
  <sodipodi:namedview
     id="namedview8"
     pagecolor="#ffffff"
     bordercolor="#666666"
     borderopacity="1.0"
     inkscape:pageshadow="2"
     inkscape:pageopacity="0.0"
     inkscape:pagecheckerboard="0"
     showgrid="false"
     inkscape:zoom="17.354167"
     inkscape:cx="0.37454982"
     inkscape:cy="15.5006"
     inkscape:window-width="1920"
     inkscape:window-height="1019"
     inkscape:window-x="0"
     inkscape:window-y="0"
     inkscape:window-maximized="1"
     inkscape:current-layer="svg6" />
  <path
     d="m 1.1323171,11.715059 h 0.999849 l 1.999698,-1.9996978 -2.9981328,0.00141 z m 19.9998079,0 V 9.7153612 l -10.999753,0 1.999698,1.9996978 h 9.000055"
     id="path2"
     style="fill:#ffffff" />
  <path
     d="m 5.727097,13.600206 -3.0695505,7.07e-4 4.5502321,-4.5502321 4.4491154,4.5495251 -3.9095929,7.07e-4 a 5.998,5.998 0 0 0 5.9099989,4.999245 5.998,5.998 0 0 0 5.909998,-4.999245 l 2.020204,-7.07e-4 a 7.988,7.988 0 0 1 -7.93091,7.000357 7.988,7.988 0 0 1 -7.9287879,-7.001064"
     id="path4"
     style="fill:#ffffff" />
</svg>
