<?xml version="1.0" encoding="UTF-8" standalone="no"?>
<svg
   version="1.1"
   id="mdi-rotate-right"
   width="24"
   height="24"
   viewBox="0 0 24 24"
   sodipodi:docname="rotate-right.svg"
   inkscape:version="1.1.1 (3bf5ae0d25, 2021-09-20)"
   xmlns:inkscape="http://www.inkscape.org/namespaces/inkscape"
   xmlns:sodipodi="http://sodipodi.sourceforge.net/DTD/sodipodi-0.dtd"
   xmlns="http://www.w3.org/2000/svg"
   xmlns:svg="http://www.w3.org/2000/svg">
  <defs
     id="defs7" />
  <sodipodi:namedview
     id="namedview5"
     pagecolor="#ffffff"
     bordercolor="#666666"
     borderopacity="1.0"
     inkscape:pageshadow="2"
     inkscape:pageopacity="0.0"
     inkscape:pagecheckerboard="0"
     showgrid="false"
     inkscape:zoom="34.708333"
     inkscape:cx="11.985594"
     inkscape:cy="11.985594"
     inkscape:window-width="1920"
     inkscape:window-height="1019"
     inkscape:window-x="0"
     inkscape:window-y="0"
     inkscape:window-maximized="1"
     inkscape:current-layer="mdi-rotate-right" />
  <path
     style="fill:#ffffff"
     d="M 15.55,5.55 11,1 V 4.07 C 7.06,4.56 4,7.92 4,12 c 0,4.08 3.05,7.44 7,7.93 V 17.91 C 8.16,17.43 6,14.97 6,12 6,9.03 8.16,6.57 11,6.09 V 10 Z"
     id="path848" />
  <path
     style="fill:#ffffff;fill-opacity:0.25"
     d="M 19.93,11 C 19.76,9.61 19.21,8.27 18.31,7.11 l -1.42,1.42 c 0.54,0.75 0.88,1.6 1.02,2.47"
     id="path846" />
  <path
     style="fill:#ffffff;fill-opacity:0.25"
     d="m 13,17.9 v 2.02 c 1.39,-0.17 2.74,-0.71 3.9,-1.61 L 15.46,16.87 C 14.71,17.41 13.87,17.76 13,17.9"
     id="path844" />
  <path
     style="fill:#ffffff;fill-opacity:0.25"
     d="m 16.89,15.5 1.42,1.39 c 0.9,-1.16 1.45,-2.5 1.62,-3.89 h -2.02 c -0.14,0.87 -0.48,1.72 -1.02,2.5"
     id="path2" />
</svg>
