<?xml version="1.0" encoding="UTF-8" standalone="no"?>
<svg
   width="24"
   height="24"
   version="1.1"
   id="svg4"
   sodipodi:docname="rotate-orbit.svg"
   inkscape:version="1.1.1 (3bf5ae0d25, 2021-09-20)"
   xmlns:inkscape="http://www.inkscape.org/namespaces/inkscape"
   xmlns:sodipodi="http://sodipodi.sourceforge.net/DTD/sodipodi-0.dtd"
   xmlns="http://www.w3.org/2000/svg"
   xmlns:svg="http://www.w3.org/2000/svg">
  <defs
     id="defs8" />
  <sodipodi:namedview
     id="namedview6"
     pagecolor="#ffffff"
     bordercolor="#666666"
     borderopacity="1.0"
     inkscape:pageshadow="2"
     inkscape:pageopacity="0.0"
     inkscape:pagecheckerboard="0"
     showgrid="false"
     inkscape:zoom="34.708333"
     inkscape:cx="12"
     inkscape:cy="11.985594"
     inkscape:window-width="1920"
     inkscape:window-height="1019"
     inkscape:window-x="0"
     inkscape:window-y="0"
     inkscape:window-maximized="1"
     inkscape:current-layer="svg4" />
  <path
     d="M8 14.25 4.75 11H7c.25-5.61 2.39-10 5-10 2 0 3.77 2.64 4.55 6.45C20.36 8.23 23 10 23 12c0 1.83-2.17 3.43-5.4 4.3l.29-2.03C19.8 13.72 21 12.91 21 12c0-1.06-1.65-2-4.13-2.5.08.79.13 1.63.13 2.5 0 6.08-2.24 11-5 11-1.83 0-3.43-2.17-4.3-5.4l2.03.29C10.28 19.8 11.09 21 12 21c1.66 0 3-4.03 3-9 0-1-.05-1.95-.15-2.85C13.95 9.05 13 9 12 9l-1.86.06.29-2.01L12 7c.87 0 1.71.05 2.5.13C14 4.65 13.06 3 12 3c-1.54 0-2.82 3.5-3 8h2.25L8 14.25M14.25 16 11 19.25V17c-5.61-.25-10-2.39-10-5 0-1.83 2.17-3.43 5.4-4.3l-.29 2.03C4.2 10.28 3 11.09 3 12c0 1.54 3.5 2.82 8 3v-2.25L14.25 16Z"
     id="path2"
     style="fill:#ffffff" />
</svg>
