<?xml version="1.0" encoding="UTF-8" standalone="no"?>
<svg
   version="1.1"
   id="mdi-rotate-left"
   width="24"
   height="24"
   viewBox="0 0 24 24"
   sodipodi:docname="rotate-left.svg"
   inkscape:version="1.1.1 (3bf5ae0d25, 2021-09-20)"
   xmlns:inkscape="http://www.inkscape.org/namespaces/inkscape"
   xmlns:sodipodi="http://sodipodi.sourceforge.net/DTD/sodipodi-0.dtd"
   xmlns="http://www.w3.org/2000/svg"
   xmlns:svg="http://www.w3.org/2000/svg">
  <defs
     id="defs7" />
  <sodipodi:namedview
     id="namedview5"
     pagecolor="#ffffff"
     bordercolor="#666666"
     borderopacity="1.0"
     inkscape:pageshadow="2"
     inkscape:pageopacity="0.0"
     inkscape:pagecheckerboard="0"
     showgrid="false"
     inkscape:zoom="17.354167"
     inkscape:cx="20.283313"
     inkscape:cy="7.0876351"
     inkscape:window-width="1920"
     inkscape:window-height="1019"
     inkscape:window-x="0"
     inkscape:window-y="0"
     inkscape:window-maximized="1"
     inkscape:current-layer="mdi-rotate-left" />
  <path
     style="fill:#ffffff;fill-opacity:0.25"
     d="M 7.11,8.53 5.7,7.11 C 4.8,8.27 4.24,9.61 4.07,11 H 6.09 C 6.23,10.13 6.58,9.28 7.11,8.53 Z"
     id="path1060" />
  <path
     style="fill:#ffffff;fill-opacity:0.25"
     d="M 6.09,13 H 4.07 c 0.17,1.39 0.72,2.73 1.62,3.89 L 7.1,15.47 C 6.58,14.72 6.23,13.88 6.09,13"
     id="path1058" />
  <path
     style="fill:#ffffff;fill-opacity:0.25"
     d="m 7.1,18.32 c 1.16,0.9 2.51,1.44 3.9,1.61 V 17.9 C 10.13,17.75 9.29,17.41 8.54,16.87 L 7.1,18.32"
     id="path1056" />
  <path
     style="fill:#ffffff"
     d="M 13,4.07 V 1 L 8.45,5.55 13,10 V 6.09 c 2.84,0.48 5,2.94 5,5.91 0,2.97 -2.16,5.43 -5,5.91 v 2.02 C 16.95,19.44 20,16.08 20,12 20,7.92 16.95,4.56 13,4.07"
     id="path2" />
</svg>
