<?xml version="1.0" encoding="UTF-8" standalone="no"?>
<svg
   width="24"
   height="24"
   version="1.1"
   id="svg4"
   sodipodi:docname="sun-wireless.svg"
   inkscape:version="1.1.1 (3bf5ae0d25, 2021-09-20)"
   xmlns:inkscape="http://www.inkscape.org/namespaces/inkscape"
   xmlns:sodipodi="http://sodipodi.sourceforge.net/DTD/sodipodi-0.dtd"
   xmlns="http://www.w3.org/2000/svg"
   xmlns:svg="http://www.w3.org/2000/svg">
  <defs
     id="defs8" />
  <sodipodi:namedview
     id="namedview6"
     pagecolor="#ffffff"
     bordercolor="#666666"
     borderopacity="1.0"
     inkscape:pageshadow="2"
     inkscape:pageopacity="0.0"
     inkscape:pagecheckerboard="0"
     showgrid="false"
     inkscape:zoom="34.708333"
     inkscape:cx="12"
     inkscape:cy="11.985594"
     inkscape:window-width="1920"
     inkscape:window-height="1019"
     inkscape:window-x="0"
     inkscape:window-y="0"
     inkscape:window-maximized="1"
     inkscape:current-layer="svg4" />
  <path
     d="M11 6c2.76 0 5 2.24 5 5s-2.24 5-5 5-5-2.24-5-5 2.24-5 5-5m0-5 2.39 3.42C12.65 4.15 11.84 4 11 4s-1.65.15-2.39.42L11 1M2.34 6l4.16-.35A7.2 7.2 0 0 0 4.94 7.5c-.44.74-.69 1.5-.83 2.29L2.34 6m.02 10 1.76-3.77a7.131 7.131 0 0 0 2.38 4.14L2.36 16M19.65 6l-1.77 3.79a7.023 7.023 0 0 0-2.38-4.15l4.15.36M23 13h-2c0 2.05-.78 4.1-2.34 5.66A7.955 7.955 0 0 1 13 21v2c2.56 0 5.12-1 7.07-2.93S23 15.56 23 13m-4 0h-2c0 1-.39 2.05-1.17 2.83C15.05 16.61 14 17 13 17v2a5.989 5.989 0 0 0 6-6"
     id="path2"
     style="fill:#ffffff" />
</svg>
